<svg width="1100" height="667" xmlns="http://www.w3.org/2000/svg" xmlns:xlink="http://www.w3.org/1999/xlink" overflow="hidden"><defs><filter id="fx0" x="-10%" y="-10%" width="120%" height="120%" filterUnits="userSpaceOnUse" primitiveUnits="userSpaceOnUse"><feComponentTransfer color-interpolation-filters="sRGB"><feFuncR type="discrete" tableValues="0 0"/><feFuncG type="discrete" tableValues="0 0"/><feFuncB type="discrete" tableValues="0 0"/><feFuncA type="linear" slope="0.4" intercept="0"/></feComponentTransfer><feGaussianBlur stdDeviation="7.11111 7.11467"/></filter><filter id="fx1" x="-10%" y="-10%" width="120%" height="120%" filterUnits="userSpaceOnUse" primitiveUnits="userSpaceOnUse"><feComponentTransfer color-interpolation-filters="sRGB"><feFuncR type="discrete" tableValues="0 0"/><feFuncG type="discrete" tableValues="0 0"/><feFuncB type="discrete" tableValues="0 0"/><feFuncA type="linear" slope="0.4" intercept="0"/></feComponentTransfer><feGaussianBlur stdDeviation="7.11111 7.11467"/></filter><filter id="fx2" x="-10%" y="-10%" width="120%" height="120%" filterUnits="userSpaceOnUse" primitiveUnits="userSpaceOnUse"><feComponentTransfer color-interpolation-filters="sRGB"><feFuncR type="discrete" tableValues="0 0"/><feFuncG type="discrete" tableValues="0 0"/><feFuncB type="discrete" tableValues="0 0"/><feFuncA type="linear" slope="0.4" intercept="0"/></feComponentTransfer><feGaussianBlur stdDeviation="7.11111 7.11467"/></filter><filter id="fx3" x="-10%" y="-10%" width="120%" height="120%" filterUnits="userSpaceOnUse" primitiveUnits="userSpaceOnUse"><feComponentTransfer color-interpolation-filters="sRGB"><feFuncR type="discrete" tableValues="0 0"/><feFuncG type="discrete" tableValues="0 0"/><feFuncB type="discrete" tableValues="0 0"/><feFuncA type="linear" slope="0.4" intercept="0"/></feComponentTransfer><feGaussianBlur stdDeviation="6.66667 6.67"/></filter><filter id="fx4" x="-10%" y="-10%" width="120%" height="120%" filterUnits="userSpaceOnUse" primitiveUnits="userSpaceOnUse"><feComponentTransfer color-interpolation-filters="sRGB"><feFuncR type="discrete" tableValues="0 0"/><feFuncG type="discrete" tableValues="0 0"/><feFuncB type="discrete" tableValues="0 0"/><feFuncA type="linear" slope="0.4" intercept="0"/></feComponentTransfer><feGaussianBlur stdDeviation="7.11111 7.11467"/></filter><filter id="fx5" x="-10%" y="-10%" width="120%" height="120%" filterUnits="userSpaceOnUse" primitiveUnits="userSpaceOnUse"><feComponentTransfer color-interpolation-filters="sRGB"><feFuncR type="discrete" tableValues="0 0"/><feFuncG type="discrete" tableValues="0 0"/><feFuncB type="discrete" tableValues="0 0"/><feFuncA type="linear" slope="0.4" intercept="0"/></feComponentTransfer><feGaussianBlur stdDeviation="7.11111 7.11467"/></filter><filter id="fx6" x="-10%" y="-10%" width="120%" height="120%" filterUnits="userSpaceOnUse" primitiveUnits="userSpaceOnUse"><feComponentTransfer color-interpolation-filters="sRGB"><feFuncR type="discrete" tableValues="0 0"/><feFuncG type="discrete" tableValues="0 0"/><feFuncB type="discrete" tableValues="0 0"/><feFuncA type="linear" slope="0.4" intercept="0"/></feComponentTransfer><feGaussianBlur stdDeviation="7.11111 7.11467"/></filter><filter id="fx7" x="-10%" y="-10%" width="120%" height="120%" filterUnits="userSpaceOnUse" primitiveUnits="userSpaceOnUse"><feComponentTransfer color-interpolation-filters="sRGB"><feFuncR type="discrete" tableValues="0 0"/><feFuncG type="discrete" tableValues="0 0"/><feFuncB type="discrete" tableValues="0 0"/><feFuncA type="linear" slope="0.4" intercept="0"/></feComponentTransfer><feGaussianBlur stdDeviation="7.11111 7.11467"/></filter><filter id="fx8" x="-10%" y="-10%" width="120%" height="120%" filterUnits="userSpaceOnUse" primitiveUnits="userSpaceOnUse"><feComponentTransfer color-interpolation-filters="sRGB"><feFuncR type="discrete" tableValues="0 0"/><feFuncG type="discrete" tableValues="0 0"/><feFuncB type="discrete" tableValues="0 0"/><feFuncA type="linear" slope="0.4" intercept="0"/></feComponentTransfer><feGaussianBlur stdDeviation="7.11111 7.11467"/></filter><filter id="fx9" x="-10%" y="-10%" width="120%" height="120%" filterUnits="userSpaceOnUse" primitiveUnits="userSpaceOnUse"><feComponentTransfer color-interpolation-filters="sRGB"><feFuncR type="discrete" tableValues="0 0"/><feFuncG type="discrete" tableValues="0 0"/><feFuncB type="discrete" tableValues="0 0"/><feFuncA type="linear" slope="0.4" intercept="0"/></feComponentTransfer><feGaussianBlur stdDeviation="5.33333 5.336"/></filter><clipPath id="clip10"><rect x="0" y="0" width="1100" height="667"/></clipPath><linearGradient x1="845.716" y1="821.599" x2="254.284" y2="-154.265" gradientUnits="userSpaceOnUse" spreadMethod="reflect" id="fill11"><stop offset="0" stop-color="#A6A6A6"/><stop offset="0.06" stop-color="#A6A6A6"/><stop offset="0.74" stop-color="#66FF99"/><stop offset="0.83" stop-color="#66FF99"/><stop offset="1" stop-color="#00CC66"/></linearGradient><clipPath id="clip12"><path d="M731.279 423.712C721.46 423.712 713.5 431.676 713.5 441.5L713.5 632.037C713.5 641.861 721.46 649.825 731.279 649.825L1058.72 649.825C1068.54 649.825 1076.5 641.861 1076.5 632.037L1076.5 441.5C1076.5 431.676 1068.54 423.712 1058.72 423.712ZM1.63913e-05 9.93907e-06 1100 9.93907e-06 1100 667 1.63913e-05 667Z" fill-rule="evenodd" clip-rule="evenodd"/></clipPath><clipPath id="clip13"><path d="M434.358 422.711C424.495 422.711 416.5 430.711 416.5 440.578L416.5 631.958C416.5 641.825 424.495 649.825 434.358 649.825L680.642 649.825C690.505 649.825 698.5 641.825 698.5 631.958L698.5 440.578C698.5 430.711 690.505 422.711 680.642 422.711ZM1.63913e-05 9.93907e-06 1100 9.93907e-06 1100 667 1.63913e-05 667Z" fill-rule="evenodd" clip-rule="evenodd"/></clipPath><clipPath id="clip14"><path d="M132.358 423.712C122.495 423.712 114.5 431.711 114.5 441.579L114.5 632.958C114.5 642.826 122.495 650.825 132.358 650.825L385.642 650.825C395.505 650.825 403.5 642.826 403.5 632.958L403.5 441.579C403.5 431.711 395.505 423.712 385.642 423.712ZM1.63913e-05 9.93907e-06 1100 9.93907e-06 1100 667 1.63913e-05 667Z" fill-rule="evenodd" clip-rule="evenodd"/></clipPath><clipPath id="clip15"><path d="M731.437 176.588C721.531 176.588 713.5 184.623 713.5 194.534L713.5 386.756C713.5 396.668 721.531 404.702 731.437 404.702L1058.56 404.702C1068.47 404.702 1076.5 396.668 1076.5 386.756L1076.5 194.534C1076.5 184.623 1068.47 176.588 1058.56 176.588ZM1.63913e-05 9.93907e-06 1100 9.93907e-06 1100 667 1.63913e-05 667Z" fill-rule="evenodd" clip-rule="evenodd"/></clipPath><clipPath id="clip16"><path d="M132.437 176.588C122.531 176.588 114.5 184.623 114.5 194.534L114.5 386.756C114.5 396.668 122.531 404.702 132.437 404.702L679.563 404.702C689.469 404.702 697.5 396.668 697.5 386.756L697.5 194.534C697.5 184.623 689.469 176.588 679.563 176.588ZM1.63913e-05 9.93907e-06 1100 9.93907e-06 1100 667 1.63913e-05 667Z" fill-rule="evenodd" clip-rule="evenodd"/></clipPath><clipPath id="clip17"><path d="M911.894 82.5413C905.601 82.5413 900.5 87.6453 900.5 93.9413L900.5 151.181C900.5 157.477 905.601 162.581 911.894 162.581L1063.11 162.581C1069.4 162.581 1074.5 157.477 1074.5 151.181L1074.5 93.9413C1074.5 87.6453 1069.4 82.5413 1063.11 82.5413ZM1.63913e-05 9.93907e-06 1100 9.93907e-06 1100 667 1.63913e-05 667Z" fill-rule="evenodd" clip-rule="evenodd"/></clipPath><clipPath id="clip18"><path d="M709.894 82.5413C703.602 82.5413 698.5 87.6453 698.5 93.9414L698.5 151.181C698.5 157.477 703.602 162.581 709.894 162.581L849.106 162.581C855.399 162.581 860.5 157.477 860.5 151.181L860.5 93.9414C860.5 87.6453 855.399 82.5413 849.106 82.5413ZM1.63913e-05 9.93907e-06 1100 9.93907e-06 1100 667 1.63913e-05 667Z" fill-rule="evenodd" clip-rule="evenodd"/></clipPath><clipPath id="clip19"><path d="M507.894 82.5413C501.602 82.5413 496.5 87.6453 496.5 93.9414L496.5 151.181C496.5 157.477 501.602 162.581 507.894 162.581L647.106 162.581C653.399 162.581 658.5 157.477 658.5 151.181L658.5 93.9414C658.5 87.6453 653.399 82.5413 647.106 82.5413ZM1.63913e-05 9.93907e-06 1100 9.93907e-06 1100 667 1.63913e-05 667Z" fill-rule="evenodd" clip-rule="evenodd"/></clipPath><clipPath id="clip20"><path d="M309.894 82.5413C303.601 82.5413 298.5 87.6453 298.5 93.9414L298.5 151.181C298.5 157.477 303.601 162.581 309.894 162.581L444.106 162.581C450.399 162.581 455.5 157.477 455.5 151.181L455.5 93.9414C455.5 87.6453 450.399 82.5413 444.106 82.5413ZM1.63913e-05 9.93907e-06 1100 9.93907e-06 1100 667 1.63913e-05 667Z" fill-rule="evenodd" clip-rule="evenodd"/></clipPath><clipPath id="clip21"><path d="M125.894 82.5413C119.601 82.5413 114.5 87.6453 114.5 93.9414L114.5 151.181C114.5 157.477 119.601 162.581 125.894 162.581L256.106 162.581C262.399 162.581 267.5 157.477 267.5 151.181L267.5 93.9414C267.5 87.6453 262.399 82.5413 256.106 82.5413ZM1.63913e-05 9.93907e-06 1100 9.93907e-06 1100 667 1.63913e-05 667Z" fill-rule="evenodd" clip-rule="evenodd"/></clipPath></defs><g clip-path="url(#clip10)"><rect x="0" y="0" width="1100" height="667.333" fill="url(#fill11)"/><g clip-path="url(#clip12)"><g filter="url(#fx0)" transform="translate(686 398)"><g><path d="M23.8701 41.5946C23.8701 31.574 31.9893 23.4507 42.0049 23.4507L375.995 23.4507C386.011 23.4507 394.13 31.574 394.13 41.5946L394.13 235.942C394.13 245.963 386.011 254.086 375.995 254.086L42.0049 254.086C31.9893 254.086 23.8701 245.963 23.8701 235.942Z" stroke="#172C51" stroke-miterlimit="8" fill="#0D0D0D" fill-rule="evenodd"/></g></g></g><path d="M713.5 441.5C713.5 431.676 721.46 423.712 731.279 423.712L1058.72 423.712C1068.54 423.712 1076.5 431.676 1076.5 441.5L1076.5 632.037C1076.5 641.861 1068.54 649.825 1058.72 649.825L731.279 649.825C721.46 649.825 713.5 641.861 713.5 632.037Z" stroke="#172C51" stroke-width="1.33333" stroke-miterlimit="8" fill="#0D0D0D" fill-rule="evenodd"/><g clip-path="url(#clip13)"><g filter="url(#fx1)" transform="translate(397 402)"><g><path d="M23.73 41.4491C23.73 31.8774 31.4855 24.118 41.0524 24.118L279.948 24.118C289.515 24.118 297.27 31.8774 297.27 41.4491L297.27 227.087C297.27 236.659 289.515 244.418 279.948 244.418L41.0524 244.418C31.4855 244.418 23.73 236.659 23.73 227.087Z" stroke="#172C51" stroke-miterlimit="8" fill="#0D0D0D" fill-rule="evenodd"/></g></g></g><path d="M416.5 440.578C416.5 430.711 424.495 422.711 434.358 422.711L680.642 422.711C690.505 422.711 698.5 430.711 698.5 440.578L698.5 631.958C698.5 641.825 690.505 649.825 680.642 649.825L434.358 649.825C424.495 649.825 416.5 641.825 416.5 631.958Z" stroke="#172C51" stroke-width="1.33333" stroke-miterlimit="8" fill="#0D0D0D" fill-rule="evenodd"/><g clip-path="url(#clip14)"><g filter="url(#fx2)" transform="translate(89 399)"><g><path d="M24.0551 41.6218C24.0551 31.6555 32.1303 23.5762 42.0916 23.5762L297.908 23.5762C307.87 23.5762 315.945 31.6555 315.945 41.6218L315.945 234.915C315.945 244.882 307.87 252.961 297.908 252.961L42.0916 252.961C32.1303 252.961 24.0551 244.882 24.0551 234.915Z" stroke="#172C51" stroke-miterlimit="8" fill="#0D0D0D" fill-rule="evenodd"/></g></g></g><path d="M114.5 441.579C114.5 431.711 122.495 423.712 132.358 423.712L385.642 423.712C395.505 423.712 403.5 431.711 403.5 441.579L403.5 632.958C403.5 642.826 395.505 650.825 385.642 650.825L132.358 650.825C122.495 650.825 114.5 642.826 114.5 632.958Z" stroke="#172C51" stroke-width="1.33333" stroke-miterlimit="8" fill="#0D0D0D" fill-rule="evenodd"/><g clip-path="url(#clip15)"><g filter="url(#fx3)" transform="translate(695 157)"><g><path d="M21.3351 40.5501C21.3351 30.5398 29.446 22.4248 39.4513 22.4248L369.849 22.4248C379.854 22.4248 387.965 30.5398 387.965 40.5501L387.965 234.695C387.965 244.705 379.854 252.82 369.849 252.82L39.4513 252.82C29.446 252.82 21.3351 244.705 21.3351 234.695Z" stroke="#172C51" stroke-miterlimit="8" fill="#0D0D0D" fill-rule="evenodd"/></g></g></g><path d="M713.5 194.534C713.5 184.623 721.531 176.588 731.437 176.588L1058.56 176.588C1068.47 176.588 1076.5 184.623 1076.5 194.534L1076.5 386.756C1076.5 396.668 1068.47 404.702 1058.56 404.702L731.437 404.702C721.531 404.702 713.5 396.668 713.5 386.756Z" stroke="#172C51" stroke-width="1.33333" stroke-miterlimit="8" fill="#0D0D0D" fill-rule="evenodd"/><g clip-path="url(#clip16)"><g filter="url(#fx4)" transform="translate(76 147)"><g><path d="M23.925 42.7287C23.925 32.3218 32.3572 23.8855 42.7588 23.8855L617.241 23.8855C627.643 23.8855 636.075 32.3218 636.075 42.7287L636.075 244.562C636.075 254.969 627.643 263.405 617.241 263.405L42.7588 263.405C32.3572 263.405 23.925 254.969 23.925 244.562Z" stroke="#172C51" stroke-miterlimit="8" fill="#0D0D0D" fill-rule="evenodd"/></g></g></g><path d="M114.5 194.534C114.5 184.623 122.531 176.588 132.437 176.588L679.563 176.588C689.469 176.588 697.5 184.623 697.5 194.534L697.5 386.756C697.5 396.668 689.469 404.702 679.563 404.702L132.437 404.702C122.531 404.702 114.5 396.668 114.5 386.756Z" stroke="#172C51" stroke-width="1.33333" stroke-miterlimit="8" fill="#0D0D0D" fill-rule="evenodd"/><g clip-path="url(#clip17)"><g filter="url(#fx5)" transform="translate(883 60)"><g><path d="M23.405 34.5768C23.405 28.5956 28.2513 23.7468 34.2296 23.7468L177.88 23.7468C183.859 23.7468 188.705 28.5956 188.705 34.5768L188.705 88.9548C188.705 94.9361 183.859 99.7848 177.88 99.7848L34.2296 99.7848C28.2513 99.7848 23.405 94.9361 23.405 88.9548Z" stroke="#172C51" stroke-miterlimit="8" fill="#0D0D0D" fill-rule="evenodd"/></g></g></g><path d="M900.5 93.9413C900.5 87.6453 905.601 82.5413 911.894 82.5413L1063.11 82.5413C1069.4 82.5413 1074.5 87.6453 1074.5 93.9413L1074.5 151.181C1074.5 157.477 1069.4 162.581 1063.11 162.581L911.894 162.581C905.601 162.581 900.5 157.477 900.5 151.181Z" stroke="#172C51" stroke-width="1.33333" stroke-miterlimit="8" fill="#0D0D0D" fill-rule="evenodd"/><g clip-path="url(#clip18)"><g filter="url(#fx6)" transform="translate(680 60)"><g><path d="M23.8049 34.5769C23.8049 28.5956 28.6513 23.7468 34.6296 23.7468L166.88 23.7468C172.859 23.7468 177.705 28.5956 177.705 34.5769L177.705 88.9547C177.705 94.936 172.859 99.7848 166.88 99.7848L34.6296 99.7848C28.6513 99.7848 23.8049 94.936 23.8049 88.9547Z" stroke="#172C51" stroke-miterlimit="8" fill="#0D0D0D" fill-rule="evenodd"/></g></g></g><path d="M698.5 93.9414C698.5 87.6453 703.602 82.5413 709.894 82.5413L849.106 82.5413C855.399 82.5413 860.5 87.6453 860.5 93.9414L860.5 151.181C860.5 157.477 855.399 162.581 849.106 162.581L709.894 162.581C703.602 162.581 698.5 157.477 698.5 151.181Z" stroke="#172C51" stroke-width="1.33333" stroke-miterlimit="8" fill="#0D0D0D" fill-rule="evenodd"/><g clip-path="url(#clip19)"><g filter="url(#fx7)" transform="translate(478 60)"><g><path d="M23.805 34.5769C23.805 28.5956 28.6513 23.7468 34.6296 23.7468L166.88 23.7468C172.859 23.7468 177.705 28.5956 177.705 34.5769L177.705 88.9547C177.705 94.936 172.859 99.7848 166.88 99.7848L34.6296 99.7848C28.6513 99.7848 23.805 94.936 23.805 88.9547Z" stroke="#172C51" stroke-miterlimit="8" fill="#0D0D0D" fill-rule="evenodd"/></g></g></g><path d="M496.5 93.9414C496.5 87.6453 501.602 82.5413 507.894 82.5413L647.106 82.5413C653.399 82.5413 658.5 87.6453 658.5 93.9414L658.5 151.181C658.5 157.477 653.399 162.581 647.106 162.581L507.894 162.581C501.602 162.581 496.5 157.477 496.5 151.181Z" stroke="#172C51" stroke-width="1.33333" stroke-miterlimit="8" fill="#0D0D0D" fill-rule="evenodd"/><g clip-path="url(#clip20)"><g filter="url(#fx8)" transform="translate(280 60)"><g><path d="M23.555 34.5769C23.555 28.5956 28.4013 23.7468 34.3796 23.7468L161.88 23.7468C167.859 23.7468 172.705 28.5956 172.705 34.5769L172.705 88.9548C172.705 94.936 167.859 99.7848 161.88 99.7848L34.3796 99.7848C28.4013 99.7848 23.555 94.936 23.555 88.9548Z" stroke="#172C51" stroke-miterlimit="8" fill="#0D0D0D" fill-rule="evenodd"/></g></g></g><path d="M298.5 93.9414C298.5 87.6453 303.601 82.5413 309.894 82.5413L444.106 82.5413C450.399 82.5413 455.5 87.6453 455.5 93.9414L455.5 151.181C455.5 157.477 450.399 162.581 444.106 162.581L309.894 162.581C303.601 162.581 298.5 157.477 298.5 151.181Z" stroke="#172C51" stroke-width="1.33333" stroke-miterlimit="8" fill="#0D0D0D" fill-rule="evenodd"/><g clip-path="url(#clip21)"><g filter="url(#fx9)" transform="translate(97 63)"><g><path d="M17.745 29.4977C17.745 23.3275 22.7444 18.3256 28.9114 18.3256L156.518 18.3256C162.686 18.3256 167.685 23.3275 167.685 29.4977L167.685 85.5927C167.685 91.7629 162.686 96.7648 156.518 96.7648L28.9114 96.7648C22.7444 96.7648 17.745 91.7629 17.745 85.5927Z" stroke="#172C51" stroke-miterlimit="8" fill="#0D0D0D" fill-rule="evenodd"/></g></g></g><path d="M114.5 93.9414C114.5 87.6453 119.601 82.5413 125.894 82.5413L256.106 82.5413C262.399 82.5413 267.5 87.6453 267.5 93.9414L267.5 151.181C267.5 157.477 262.399 162.581 256.106 162.581L125.894 162.581C119.601 162.581 114.5 157.477 114.5 151.181Z" stroke="#172C51" stroke-width="1.33333" stroke-miterlimit="8" fill="#0D0D0D" fill-rule="evenodd"/></g></svg>